# xmcd
# 
# Track frame offsets:
#     150
#     13916
#     28704
#     44016
#     56779
#     77732
#     92098
#     106350
#     112139
#     131612
#     145850
#     166489
# 
# Disc length: 2446
# 
# Revision: 2
# Processed by: cddbd v1.5.2PL0 Copyright (c) Steve Scherf et al.
# Submitted via: fre:ac v1.0.31
# 
DISCID=ab098c0c
DTITLE=Blackberry Smoke - Holding All The Roses
DYEAR=2015
DGENRE=Rock/Pop
TTITLE0=Let Me Help You (Find the Door)
TTITLE1=Holding All The Roses
TTITLE2=Living In The Song
TTITLE3=Rock and Roll Again
TTITLE4=Woman In The Moon
TTITLE5=Too High
TTITLE6=Wish In One Hand
TTITLE7=Randolph County Farewell
TTITLE8=Payback's A Bitch
TTITLE9=Lay It All On Me
TTITLE10=No Way Back To Eden
TTITLE11=Fire In The Hole
EXTD=
EXTT0=
EXTT1=
EXTT2=
EXTT3=
EXTT4=
EXTT5=
EXTT6=
EXTT7=
EXTT8=
EXTT9=
EXTT10=
EXTT11=
PLAYORDER=
